Coordinates
version=1
nRows=29
nColumns=24
inDegrees=yes

Units are S.I. units (second, meters, Newtons, ...)
Angles are in degrees.

endheader
time	pelvis_tilt	pelvis_list	pelvis_rotation	pelvis_tx	pelvis_ty	pelvis_tz	hip_flexion_r	hip_adduction_r	hip_rotation_r	knee_angle_r	ankle_angle_r	subtalar_angle_r	mtp_angle_r	hip_flexion_l	hip_adduction_l	hip_rotation_l	knee_angle_l	ankle_angle_l	subtalar_angle_l	mtp_angle_l	lumbar_extension	lumbar_bending	lumbar_rotation
      0.68366667	     -5.35986692	      0.59956227	      2.26844995	     -0.36510137	      1.06393617	      0.29583159	     15.85355222	      2.16584054	     -1.11931025	    -20.76401315	     11.57185760	     -5.15529743	      2.80746808	     23.83131597	     -3.20902688	     -3.23171028	    -71.48254524	     11.16000533	      6.38695947	      2.50008114	     -6.87749913	      4.33814869	      3.43391561
      0.68783333	     -5.33201936	      0.69843121	      2.11028649	     -0.35992814	      1.06478769	      0.29626654	     15.36026648	      2.11488235	     -1.00920435	    -20.42254825	     11.65302981	     -5.04138033	      2.79028129	     24.29264163	     -3.15601282	     -3.44792961	    -70.99807221	     11.43880907	      6.70184472	      2.51468397	     -6.94267653	      4.19803595	      3.62970782
      0.69200000	     -5.33231002	      0.79321577	      1.94264190	     -0.35475014	      1.06553128	      0.29671250	     14.90184541	      2.06642994	     -0.89957341	    -20.08753607	     11.74356871	     -4.93240564	      2.76590484	     24.77371247	     -3.11529181	     -3.68029052	    -70.47757223	     11.70612537	      7.00107791	      2.53437057	     -6.96282988	      4.04471482	      3.88846667
      0.69616667	     -5.32257459	      0.89826828	      1.76439968	     -0.34957888	      1.06627635	      0.29716577	     14.43586928	      2.00605327	     -0.77814779	    -19.75610062	     11.79518941	     -4.81158296	      2.75571220	     25.22585403	     -3.07054541	     -3.93221178	    -69.90447399	     11.95739779	      7.25736402	      2.54880166	     -6.99778187	      3.88871088	      3.99531717
      0.70033333	     -5.29855670	      1.00115974	      1.58970260	     -0.34443137	      1.06701057	      0.29759891	     13.95364965	      1.94532562	     -0.65018710	    -19.42045291	     11.88559405	     -4.70319770	      2.74187004	     25.65127633	     -3.02397430	     -4.16965253	    -69.28592244	     12.20152525	      7.56141211	      2.56763321	     -7.06398406	      3.75686145	      4.20458691
      0.70450000	     -5.28237535	      1.08906469	      1.41472908	     -0.33928083	      1.06766878	      0.29805038	     13.47969386	      1.89878400	     -0.53796961	    -19.08032679	     11.97929695	     -4.59512573	      2.72077549	     26.07829119	     -3.00458205	     -4.41694593	    -68.64210321	     12.42617366	      7.83559096	      2.59262987	     -7.11199101	      3.60412339	      4.47744694
      0.70866667	     -5.30243226	      1.19147177	      1.22838402	     -0.33413187	      1.06822570	      0.29850040	     13.05565014	      1.83347638	     -0.41042818	    -18.76262034	     12.04041347	     -4.47436199	      2.71021653	     26.52709687	     -2.97027654	     -4.67443692	    -67.95116636	     12.63083437	      8.06833348	      2.60923168	     -7.11517347	      3.45942366	      4.60165378
      0.71283333	     -5.29637813	      1.28123817	      1.04728421	     -0.32899887	      1.06878564	      0.29892821	     12.60066265	      1.77768484	     -0.29615407	    -18.43504080	     12.12796982	     -4.35729042	      2.69842328	     26.93727201	     -2.95028661	     -4.92484746	    -67.22254060	     12.82733070	      8.32150602	      2.62788398	     -7.14862069	      3.32883613	      4.78929656
      0.71700000	     -5.28023578	      1.34696128	      0.87951293	     -0.32386973	      1.06931060	      0.29934154	     12.12745686	      1.74393595	     -0.19280329	    -18.09147386	     12.22265862	     -4.24557495	      2.67813615	     27.33205160	     -2.95395741	     -5.15491119	    -66.47033396	     13.00518084	      8.54847937	      2.65389023	     -7.19894584	      3.20222541	      5.05363586
      0.72116667	     -5.29741489	      1.43584248	      0.70032700	     -0.31874017	      1.06975507	      0.29974484	     11.70176288	      1.68123960	     -0.08253925	    -17.77114995	     12.28795615	     -4.12579103	      2.66784433	     27.74056699	     -2.93249620	     -5.39838762	    -65.66404322	     13.15092654	      8.73735948	      2.66936252	     -7.20238783	      3.07811117	      5.16816855
      0.72533333	     -5.29457721	      1.52029254	      0.52646820	     -0.31362341	      1.07018023	      0.30014280	     11.25561252	      1.62015207	      0.01368973	    -17.45172573	     12.37937983	     -4.00097902	      2.65795786	     28.11622265	     -2.91550471	     -5.63291406	    -64.82343099	     13.28551930	      8.92317064	      2.68478715	     -7.23352196	      2.95050206	      5.32558472
      0.72950000	     -5.28773097	      1.58110397	      0.36665432	     -0.30851670	      1.07055632	      0.30051497	     10.80005858	      1.57928873	      0.09116542	    -17.12080654	     12.49159851	     -3.86955524	      2.64067072	     28.48292360	     -2.91920558	     -5.84513665	    -63.96155762	     13.40636889	      9.08956384	      2.70613166	     -7.27349033	      2.83285166	      5.55946416
      0.73366667	     -5.31464393	      1.64717979	      0.20268067	     -0.30341571	      1.07082480	      0.30087066	     10.39040776	      1.52961683	      0.17559085	    -16.80825366	     12.56127518	     -3.74148466	      2.63230202	     28.87021558	     -2.91353237	     -6.05293295	    -63.06005515	     13.50365737	      9.22019569	      2.71686560	     -7.26931315	      2.73740500	      5.65399159
      0.73783333	     -5.30860881	      1.69944171	      0.05365189	     -0.29832336	      1.07110688	      0.30119457	      9.93885125	      1.48913220	      0.23504051	    -16.48375116	     12.68085678	     -3.60245023	      2.61616710	     29.21236513	     -2.91601763	     -6.24011153	    -62.12997308	     13.58867268	      9.33747638	      2.73338145	     -7.30855006	      2.63807381	      5.85462057
      0.74200000	     -5.33550457	      1.74594377	     -0.09293950	     -0.29323614	      1.07127806	      0.30149950	      9.52904099	      1.45169867	      0.29588560	    -16.17204900	     12.77673454	     -3.45990621	      2.59880064	     29.57834500	     -2.91847685	     -6.41034773	    -61.16897662	     13.65236282	      9.42339078	      2.74845259	     -7.31058150	      2.55618516	      5.99810706
      0.74616667	     -5.35963198	      1.79154721	     -0.23526654	     -0.28815385	      1.07141801	      0.30178867	      9.11701126	      1.41222166	      0.34980602	    -15.86004039	     12.85777570	     -3.33634701	      2.59172822	     29.92543588	     -2.91877570	     -6.57374240	    -60.17061240	     13.69672473	      9.48605028	      2.75366680	     -7.30727380	      2.48279723	      6.06695183
      0.75033333	     -5.38157200	      1.82434788	     -0.36591044	     -0.28307755	      1.07149513	      0.30204949	      8.70073849	      1.38291670	      0.39224832	    -15.54695485	     12.95726729	     -3.20105556	      2.58648910	     30.26180215	     -2.92447717	     -6.71166322	    -59.15115672	     13.73019364	      9.52434688	      2.75656544	     -7.31360603	      2.42002602	      6.15479289
      0.75450000	     -5.40059783	      1.85390474	     -0.49207719	     -0.27801645	      1.07154572	      0.30228739	      8.28556799	      1.35325307	      0.42224711	    -15.24107650	     13.06614078	     -3.05908056	      2.58045812	     30.57977456	     -2.92577576	     -6.83268796	    -58.09501529	     13.74339571	      9.52630904	      2.75784274	     -7.32501869	      2.36217358	      6.26027532
      0.75866667	     -5.44418348	      1.86321886	     -0.60705006	     -0.27296339	      1.07147423	      0.30249127	      7.89641363	      1.34283443	      0.44588906	    -14.93614127	     13.17773844	     -2.91701958	      2.57479531	     30.91968192	     -2.94021793	     -6.92739651	    -57.02659632	     13.75035888	      9.50664771	      2.75731294	     -7.30739777	      2.32965282	      6.35366520
      0.76283333	     -5.47298764	      1.87632221	     -0.71828067	     -0.26791811	      1.07140721	      0.30267217	      7.49369703	      1.32410294	      0.45770401	    -14.63521726	     13.29352202	     -2.76823583	      2.56889450	     31.22419379	     -2.94238781	     -7.00614703	    -55.91704493	     13.73624903	      9.44746315	      2.75489947	     -7.31018349	      2.29336759	      6.43857774
      0.76700000	     -5.51661857	      1.86816348	     -0.81951904	     -0.26288607	      1.07122949	      0.30282867	      7.10721972	      1.32733746	      0.46674093	    -14.33609815	     13.41093073	     -2.62285733	      2.56365575	     31.54089144	     -2.96042665	     -7.05905989	    -54.79859186	     13.72048675	      9.37617045	      2.75104531	     -7.29938543	      2.28407549	      6.50631609
      0.77116667	     -5.55322281	      1.85173739	     -0.91448097	     -0.25785929	      1.07104145	      0.30296027	      6.71074036	      1.33719386	      0.47227993	    -14.03209609	     13.52073368	     -2.48123156	      2.55835678	     31.83411053	     -2.97790260	     -7.08849753	    -53.64831303	     13.68895540	      9.27308774	      2.74557591	     -7.29841500	      2.28448481	      6.56371717
      0.77533333	     -5.60750692	      1.83192580	     -1.00387063	     -0.25284879	      1.07075421	      0.30307634	      6.34006067	      1.34928606	      0.47448607	    -13.74450734	     13.64531975	     -2.34294333	      2.55329110	     32.13541083	     -2.99284582	     -7.09822736	    -52.47532812	     13.65274823	      9.15149277	      2.73922640	     -7.27488526	      2.29372603	      6.60829371
      0.77950000	     -5.65046242	      1.79984200	     -1.08672869	     -0.24784570	      1.07045765	      0.30316541	      5.95374038	      1.37273726	      0.47182064	    -13.44855068	     13.76142810	     -2.20591461	      2.54794545	     32.41139213	     -3.01166173	     -7.08425223	    -51.27631706	     13.60867060	      9.00996776	      2.73231748	     -7.26966436	      2.31667163	      6.64429123
      0.78366667	     -5.71345530	      1.75057410	     -1.16026269	     -0.24284948	      1.07005141	      0.30322887	      5.58908430	      1.41433778	      0.46916756	    -13.15584935	     13.88072764	     -2.07545236	      2.54214447	     32.70281080	     -3.04214855	     -7.04614990	    -50.06908151	     13.56664081	      8.85857173	      2.72538091	     -7.24776709	      2.36192130	      6.66928515
      0.78783333	     -5.78058055	      1.70602687	     -1.23003798	     -0.23785726	      1.06959383	      0.30328344	      5.23109850	      1.45044540	      0.46452917	    -12.86914950	     14.00576820	     -1.94966269	      2.53603578	     32.98276377	     -3.06165378	     -6.99031810	    -48.83337358	     13.51932897	      8.69251198	      2.71850003	     -7.22277356	      2.40365549	      6.68210956
      0.79200000	     -5.85329492	      1.64542701	     -1.29548866	     -0.23288348	      1.06908232	      0.30330847	      4.88604153	      1.50199200	      0.45817765	    -12.59829660	     14.13376576	     -1.82490023	      2.52810981	     33.25649569	     -3.08874012	     -6.90418820	    -47.57483381	     13.47218364	      8.51136628	      2.71221403	     -7.18233566	      2.46535243	      6.68527963
      0.79616667	     -5.92722618	      1.57138741	     -1.35047833	     -0.22790733	      1.06851419	      0.30331642	      4.53582673	      1.56892041	      0.45296959	    -12.31733113	     14.25581075	     -1.71231112	      2.51951048	     33.52352308	     -3.12416342	     -6.79773616	    -46.30595646	     13.43490080	      8.34579537	      2.70718554	     -7.15030006	      2.54164451	      6.67820276
      0.80033333	     -5.99767364	      1.49599520	     -1.40160938	     -0.22292753	      1.06792392	      0.30331095	      4.18136072	      1.63675775	      0.45046968	    -12.03785759	     14.37966419	     -1.60985118	      2.50856587	     33.76947554	     -3.15498749	     -6.67370677	    -45.00924261	     13.39724476	      8.17049935	      2.70346671	     -7.12331508	      2.62089122	      6.65892467
